<mxfile host="app.diagrams.net" modified="2023-10-30T03:20:22.582Z" agent="Mozilla/5.0 (Windows NT 10.0; Win64; x64) AppleWebKit/537.36 (KHTML, like Gecko) Chrome/118.0.0.0 Safari/537.36" etag="ONGpVN9mBx8hYm40KUe0" version="22.0.8" type="device">
  <diagram name="Page-1" id="NaYscgrTeaXJ9CH_b7yd">
    <mxGraphModel dx="1434" dy="673" grid="1" gridSize="10" guides="1" tooltips="1" connect="1" arrows="1" fold="1" page="1" pageScale="1" pageWidth="850" pageHeight="1100" math="0" shadow="0">
      <root>
        <mxCell id="0" />
        <mxCell id="1" parent="0" />
        <mxCell id="OYt3OjBOBeP1C7tAOGmH-1" value="User MS" style="swimlane;whiteSpace=wrap;html=1;" vertex="1" parent="1">
          <mxGeometry x="120" y="60" width="200" height="200" as="geometry" />
        </mxCell>
        <mxCell id="OYt3OjBOBeP1C7tAOGmH-10" value="Application owner" style="rounded=0;whiteSpace=wrap;html=1;" vertex="1" parent="OYt3OjBOBeP1C7tAOGmH-1">
          <mxGeometry x="10" y="100" width="70" height="30" as="geometry" />
        </mxCell>
        <mxCell id="OYt3OjBOBeP1C7tAOGmH-9" value="Admin" style="rounded=0;whiteSpace=wrap;html=1;" vertex="1" parent="OYt3OjBOBeP1C7tAOGmH-1">
          <mxGeometry x="10" y="70" width="70" height="20" as="geometry" />
        </mxCell>
        <mxCell id="OYt3OjBOBeP1C7tAOGmH-8" value="User" style="rounded=0;whiteSpace=wrap;html=1;" vertex="1" parent="OYt3OjBOBeP1C7tAOGmH-1">
          <mxGeometry x="10" y="40" width="70" height="20" as="geometry" />
        </mxCell>
        <mxCell id="OYt3OjBOBeP1C7tAOGmH-12" value="login" style="text;html=1;align=center;verticalAlign=middle;resizable=0;points=[];autosize=1;strokeColor=none;fillColor=none;" vertex="1" parent="OYt3OjBOBeP1C7tAOGmH-1">
          <mxGeometry x="110" y="35" width="50" height="30" as="geometry" />
        </mxCell>
        <mxCell id="OYt3OjBOBeP1C7tAOGmH-13" value="Register" style="text;html=1;align=center;verticalAlign=middle;resizable=0;points=[];autosize=1;strokeColor=none;fillColor=none;" vertex="1" parent="OYt3OjBOBeP1C7tAOGmH-1">
          <mxGeometry x="105" y="60" width="70" height="30" as="geometry" />
        </mxCell>
        <mxCell id="OYt3OjBOBeP1C7tAOGmH-14" value="Reset PWD" style="text;html=1;align=center;verticalAlign=middle;resizable=0;points=[];autosize=1;strokeColor=none;fillColor=none;" vertex="1" parent="OYt3OjBOBeP1C7tAOGmH-1">
          <mxGeometry x="105" y="90" width="90" height="30" as="geometry" />
        </mxCell>
        <mxCell id="OYt3OjBOBeP1C7tAOGmH-15" value="Nick Name" style="text;html=1;align=center;verticalAlign=middle;resizable=0;points=[];autosize=1;strokeColor=none;fillColor=none;" vertex="1" parent="OYt3OjBOBeP1C7tAOGmH-1">
          <mxGeometry x="110" y="120" width="80" height="30" as="geometry" />
        </mxCell>
        <mxCell id="OYt3OjBOBeP1C7tAOGmH-2" value="Insurance MS" style="swimlane;whiteSpace=wrap;html=1;" vertex="1" parent="1">
          <mxGeometry x="30" y="330" width="200" height="200" as="geometry" />
        </mxCell>
        <mxCell id="OYt3OjBOBeP1C7tAOGmH-3" value="Dashboard MS" style="swimlane;whiteSpace=wrap;html=1;" vertex="1" parent="1">
          <mxGeometry x="420" y="60" width="190" height="200" as="geometry" />
        </mxCell>
        <mxCell id="OYt3OjBOBeP1C7tAOGmH-4" value="Cart MS" style="swimlane;whiteSpace=wrap;html=1;" vertex="1" parent="1">
          <mxGeometry x="340" y="330" width="200" height="200" as="geometry" />
        </mxCell>
        <mxCell id="OYt3OjBOBeP1C7tAOGmH-5" value="Discount MS" style="swimlane;whiteSpace=wrap;html=1;" vertex="1" parent="1">
          <mxGeometry x="600" y="330" width="200" height="200" as="geometry" />
        </mxCell>
        <mxCell id="OYt3OjBOBeP1C7tAOGmH-19" style="edgeStyle=orthogonalEdgeStyle;rounded=0;orthogonalLoop=1;jettySize=auto;html=1;" edge="1" parent="1" source="OYt3OjBOBeP1C7tAOGmH-18">
          <mxGeometry relative="1" as="geometry">
            <mxPoint x="120" y="530" as="targetPoint" />
          </mxGeometry>
        </mxCell>
        <mxCell id="OYt3OjBOBeP1C7tAOGmH-18" value="DATABASE&lt;br&gt;&lt;br&gt;&lt;br&gt;&lt;br&gt;&lt;br&gt;&lt;br&gt;" style="shape=cylinder3;whiteSpace=wrap;html=1;boundedLbl=1;backgroundOutline=1;size=15;" vertex="1" parent="1">
          <mxGeometry x="60" y="580" width="120" height="150" as="geometry" />
        </mxCell>
        <mxCell id="OYt3OjBOBeP1C7tAOGmH-16" value="Insurance" style="text;html=1;align=center;verticalAlign=middle;resizable=0;points=[];autosize=1;strokeColor=none;fillColor=none;" vertex="1" parent="1">
          <mxGeometry x="80" y="650" width="80" height="30" as="geometry" />
        </mxCell>
        <mxCell id="OYt3OjBOBeP1C7tAOGmH-17" value="Insurance Policy" style="text;html=1;align=center;verticalAlign=middle;resizable=0;points=[];autosize=1;strokeColor=none;fillColor=none;" vertex="1" parent="1">
          <mxGeometry x="70" y="680" width="110" height="30" as="geometry" />
        </mxCell>
        <mxCell id="OYt3OjBOBeP1C7tAOGmH-26" style="edgeStyle=orthogonalEdgeStyle;rounded=0;orthogonalLoop=1;jettySize=auto;html=1;" edge="1" parent="1" source="OYt3OjBOBeP1C7tAOGmH-20">
          <mxGeometry relative="1" as="geometry">
            <mxPoint x="422.5" y="530" as="targetPoint" />
          </mxGeometry>
        </mxCell>
        <mxCell id="OYt3OjBOBeP1C7tAOGmH-20" value="DATABASE" style="shape=cylinder3;whiteSpace=wrap;html=1;boundedLbl=1;backgroundOutline=1;size=15;" vertex="1" parent="1">
          <mxGeometry x="375" y="580" width="95" height="150" as="geometry" />
        </mxCell>
        <mxCell id="OYt3OjBOBeP1C7tAOGmH-23" style="edgeStyle=orthogonalEdgeStyle;rounded=0;orthogonalLoop=1;jettySize=auto;html=1;" edge="1" parent="1" source="OYt3OjBOBeP1C7tAOGmH-22">
          <mxGeometry relative="1" as="geometry">
            <mxPoint x="707.5" y="530" as="targetPoint" />
          </mxGeometry>
        </mxCell>
        <mxCell id="OYt3OjBOBeP1C7tAOGmH-22" value="DATABASE" style="shape=cylinder3;whiteSpace=wrap;html=1;boundedLbl=1;backgroundOutline=1;size=15;" vertex="1" parent="1">
          <mxGeometry x="660" y="580" width="95" height="150" as="geometry" />
        </mxCell>
        <mxCell id="OYt3OjBOBeP1C7tAOGmH-25" style="edgeStyle=orthogonalEdgeStyle;rounded=0;orthogonalLoop=1;jettySize=auto;html=1;entryX=1;entryY=0.5;entryDx=0;entryDy=0;" edge="1" parent="1" source="OYt3OjBOBeP1C7tAOGmH-24" target="OYt3OjBOBeP1C7tAOGmH-3">
          <mxGeometry relative="1" as="geometry" />
        </mxCell>
        <mxCell id="OYt3OjBOBeP1C7tAOGmH-24" value="DATABASE" style="shape=cylinder3;whiteSpace=wrap;html=1;boundedLbl=1;backgroundOutline=1;size=15;" vertex="1" parent="1">
          <mxGeometry x="700" y="85" width="95" height="150" as="geometry" />
        </mxCell>
      </root>
    </mxGraphModel>
  </diagram>
</mxfile>
